<svg width="16" height="20" viewBox="0 0 16 20" fill="none" xmlns="http://www.w3.org/2000/svg">
<path d="M13.3333 7.94613V5.4178C13.3333 2.45608 10.8148 0 7.7778 0C4.74074 0 2.22222 2.45608 2.22222 5.41783V7.94617C0.962944 7.94617 0 8.88523 0 10.1133V17.337C0 18.5651 0.962944 19.5041 2.22222 19.5041H13.3333C14.5926 19.5041 15.5556 18.5651 15.5556 17.337V10.1133C15.5556 8.95745 14.5926 7.94613 13.3333 7.94613ZM8.14815 13.6529V15.5311C8.14815 15.7478 8 15.8923 7.7778 15.8923C7.55559 15.8923 7.40745 15.7478 7.40745 15.5311V13.6529C6.963 13.5084 6.66671 13.075 6.66671 12.6416C6.66671 12.0637 7.18524 11.558 7.77784 11.558C8.37043 11.558 8.88897 12.0637 8.88897 12.6416C8.88889 13.1472 8.59259 13.5084 8.14815 13.6529ZM11.1111 7.94613H4.44444V5.4178C4.44444 3.61188 5.92593 2.16713 7.77776 2.16713C9.62959 2.16713 11.1111 3.61188 11.1111 5.4178V7.94613H11.1111Z" fill="black"/>
</svg>
